<!DOCTYPE svg PUBLIC "-//W3C//DTD SVG 1.1//EN" "http://www.w3.org/Graphics/SVG/1.1/DTD/svg11.dtd">
<!-- Uploaded to: SVG Repo, www.svgrepo.com, Transformed by: SVG Repo Mixer Tools -->
<svg fill="#000000" width="64px" height="64px" viewBox="0 0 24 24" id="folder-code" data-name="Flat Color" xmlns="http://www.w3.org/2000/svg" class="icon flat-color">
<g id="SVGRepo_bgCarrier" stroke-width="0"/>
<g id="SVGRepo_tracerCarrier" stroke-linecap="round" stroke-linejoin="round"/>
<g id="SVGRepo_iconCarrier">
<path id="primary" d="M20,6H13.41L11,3.59A2,2,0,0,0,9.59,3H4A2,2,0,0,0,2,5V19a2,2,0,0,0,2,2H20a2,2,0,0,0,2-2V8A2,2,0,0,0,20,6Z" style="fill: #000000;"/>
<path id="secondary" d="M10,16a1,1,0,0,1-.71-.29l-2-2a1,1,0,0,1,0-1.42l2-2a1,1,0,0,1,1.42,1.42L9.41,13l1.3,1.29a1,1,0,0,1,0,1.42A1,1,0,0,1,10,16Zm4.71-.29,2-2a1,1,0,0,0,0-1.42l-2-2a1,1,0,0,0-1.42,1.42L14.59,13l-1.3,1.29a1,1,0,0,0,0,1.42,1,1,0,0,0,1.42,0Z" style="fill: #2ca9bc;"/>
</g>
</svg>